# xmcd
#
# Track frame offsets:
#	150
#	11432
#	23272
#	37470
#	49397
#	63120
#	76692
#	93567
#	106845
#	116590
#
# Disc length: 1739 seconds
#
# Revision: 0
# Processed by: cddbd v1.5.2PL0 Copyright (c) Steve Scherf et al.
# Submitted via: audiograbber 1.83.01
#
DISCID=7106c90a
DTITLE=Conway Twitty - Super Hits
DYEAR=1994
DGENRE=Country
TTITLE0=Hello Darlin'
TTITLE1=Linda On My Mind
TTITLE2=You've Never Been This Far before
TTITLE3=She Needs Someone To Hold Her (When She Cries)
TTITLE4=Baby's Gone
TTITLE5=The Games That Daddies Play
TTITLE6=Don't Cry Joni
TTITLE7=After All The Good Is Gone
TTITLE8=I'll Try
TTITLE9=Fifteen Years Ago
EXTD=[CD]476961 2
EXTT0=
EXTT1=
EXTT2=
EXTT3=
EXTT4=
EXTT5=
EXTT6=
EXTT7=
EXTT8=
EXTT9=
PLAYORDER=
